<?xml version="1.0" encoding="UTF-8"?>
<svg version="1.1" viewBox="0 0 2048 2048" width="512" height="512" xmlns="http://www.w3.org/2000/svg">
<path transform="translate(437,60)" d="m0 0h1338l12 2 8 7 4 7v1562l-6 16-9 25-8 27-6 28-3 20-2 19-1 19v15l2 28 4 29 6 28 9 30 9 24 5 13v12l-4 8-7 6-6 2h-1360l-17-2-18-4-21-7-23-11-15-10-13-10-15-14-9-10-11-15-9-15-10-21-6-18-4-17-2-16-1-17v-1556l2-23 4-20 8-24 8-17 11-18 10-13 10-11 13-13 16-12 18-11 19-9 18-6 18-4 13-2z" fill="#418CC8"/>
<path transform="translate(437,60)" d="m0 0h1338l12 2 8 7 4 7v1562l-6 16-9 25-8 27-6 28-3 20-2 19-1 19v15l2 28 4 29 6 28 9 30 9 24 5 13v12l-4 8-7 6-6 2h-1360l-17-2-18-4-21-7-23-11-15-10-13-10-15-14-9-10-11-15-9-15-10-21-6-18-4-17-2-16-1-17v-1556l2-23 4-20 8-24 8-17 11-18 10-13 10-11 13-13 16-12 18-11 19-9 18-6 18-4 13-2zm249 46-1 2v1501l2 2h997l69-1 1-1 1-604v-110l-1-788z" fill="#010001"/>
<path transform="translate(926,395)" d="m0 0h586l15 4 14 8 10 9 8 11 6 13 2 8v512l-2 14-4 13h-2l-2 5-7 9-7 7-14 8-6 3-14 2h-583l-9-2-16-8-9-7-8-10-6-9-4-13-1-1v-520l1-10 5-10 5-9 9-10 8-7 16-8z" fill="#D8DCEF"/>
<path transform="translate(421,1656)" d="m0 0h1322l-1 5-8 27-7 30-1 6-979 1-9 6-5 7-1 4v10l4 8 7 6 8 3h968v59l-1172 1-10 4-7 8-2 5v10l5 10 4 4 8 3 1180 1 3 9 6 27 9 29v3h-1324l-20-4-15-5-16-8-16-10-13-11-11-11-11-15-8-13-4-9-5-12-5-24-1-1v-40h2v-10l3-9 1-6h2l1-8 7-14 9-15 8-10 9-10 7-7 18-13 10-6 15-7 12-3 9-3z" fill="#D7DCEF"/>
<path transform="translate(550,106)" d="m0 0h88l2 1v1502l-1 1h-90v-1503z" fill="#418BC7"/>
<path transform="translate(1176,349)" d="m0 0h115l220 1 16 2 16 5 16 8 11 7 15 14 10 13 9 17 5 15 2 10 1 10v513l-2 16-4 15-9 19-10 14-13 13-14 10-19 9-19 5-8 1-53 1h-482l-53-1-18-3-17-6-11-6-14-10-14-14-10-14-8-17-4-15-2-14v-517l3-20 6-17 8-14 9-12 11-11 15-11 16-8 12-4 11-2 12-1zm-250 46-12 3-14 8-10 9-6 7-6 10-4 9-1 10v520l4 10 3 7 7 10 5 6 11 8 14 7 9 2h583l14-2 17-9 10-9 7-9 2-5h2l5-17 1-10v-512l-3-11-7-13-7-9-10-9-16-8-12-3z" fill="#010001"/>
<path transform="translate(420,581)" d="m0 0h83l1 3v545l-1 5-18 1-57 1-21 2-23 5-22 8-23 12-17 12-14 12-9 8-5 5v-486l3-20 6-21 7-16 9-15 11-14 13-13 13-10 13-8 18-8 16-5z" fill="#425661"/>
<path transform="translate(1056,538)" d="m0 0h32l14 3 16 6 16 9 13 11 8 8 11 15 9 19 3 12 2 6 1 7v227l-4 9-8 7-3 1h-15l-7-4-6-7-2-10-1-104h-127v110l-6 9-6 5-4 1h-14l-8-5-6-8-1-4v-226l4-20 6-15 6-11 8-11 11-12 10-8 14-9 14-6 13-4z" fill="#020102"/>
<path transform="translate(451,1403)" d="m0 0h52l1 3v131l-1 72-1 1-69 1-25 2-19 4-17 5-20 9-11 6-12 8-9 7-13 11-12 12-2-1 1-137 3-20 4-15 6-16 8-15 10-14 9-10 11-11 15-11 21-11 21-7 18-3z" fill="#425661"/>
<path transform="translate(424,106)" d="m0 0h79l1 28v174l-1 4-67 1-28 2-23 5-25 9-21 11-14 10-11 9-13 12-7 6v-138l2-16 6-22 6-15 9-16 9-12 9-10 8-8 15-11 16-9 16-7 19-5z" fill="#425661"/>
<path transform="translate(1393,672)" d="m0 0h13l8 4 6 7 3 7 1 113 2 9 7 9 7 5 8 3 12 1 8 4 6 7 3 8v7l-3 8-7 8-12 3h-12l-9-2-8-3-14-7-13-11-2-3-4 1-9 8-14 9-8 4-14 5-16 3h-17l-14-2-10-3-12-5-12-7-15-12-7-8-7-10-8-16-5-16-2-10v-21l4-20 1-3h2l2-9 6-11 8-11 6-7 8-7 13-9 12-6 15-5 11-2h23l15 3 9 3 13 6 7 4v-8l4-7 7-6z" fill="#020203"/>
<path transform="translate(421,1656)" d="m0 0h1260v1l-1202 1 1 6-24 24-10 13-9 14-10 21-6 18-4 19-2 21v16l3 25 5 18 5 13 9 17 7 11 9 12v2h2l7 8 10 9 9 6 10 5v2l21 1h1054l103 1 8 1v1h-1258l-20-4-15-5-16-8-16-10-13-11-11-11-11-15-8-13-4-9-5-12-5-24-1-1v-40h2v-10l3-9 1-6h2l1-8 7-14 9-15 8-10 9-10 7-7 18-13 10-6 15-7 12-3 9-3z" fill="#BFC6E3"/>
<path transform="translate(419,358)" d="m0 0h84l1 1v176l-78 1-19 2-19 4-21 7-9 4-17 9-15 10-10 8-12 11-9 9h-1v-109l3-21 3-12 3-10 8-16 1-3h2l2-5 10-14 11-12 11-10 13-9h2v-2l5-3 13-5 8-4 17-4 6-2z" fill="#D7DCEF"/>
<path transform="translate(419,1181)" d="m0 0h84l1 1v175l-1 1h-47l-33 1-17 2-22 5-15 5h-3v2l-10 4-17 9-16 11-13 11-5 4-3 4h-2l-2 4-4 3v-109l3-21 3-14 2-3 3-10 11-20 10-13 9-10 8-8 13-10 5-2v-2l22-11 18-5 1-1z" fill="#D8DCEF"/>
<path transform="translate(907,1260)" d="m0 0h634l13 2 8 7 4 10v8l-4 9-7 7-6 2h-642l-8-3-6-5-4-8v-12l4-8 8-7z" fill="#010001"/>
<path transform="translate(910,1387)" d="m0 0 641 1 9 6 5 8 1 3v10l-4 8-7 7-5 2h-645l-8-4-6-7-2-5v-12l4-8 8-7z" fill="#010001"/>
<path transform="translate(1064,583)" d="m0 0h15l15 3 12 6 10 8 8 9 6 11 4 10 2 9v69h-128v-71l5-16 7-12 10-11 12-9 14-5z" fill="#D7DBEF"/>
<path transform="translate(364,1200)" d="m0 0 2 1-1 2h2l1 121v17l1 9-1 10v7l-1 3-3 1 2 2-10 4-17 9-16 11-13 11-5 4-3 4h-2l-2 4-4 3v-109l3-21 3-14 2-3 3-10 11-20 10-13 9-10 8-8 13-10 5-2v-2z" fill="#C3C8E4"/>
<path transform="translate(363,377)" d="m0 0h3l1 3 1 126v29l-1 14-9 4-17 9-15 10-10 8-12 11-9 9h-1v-109l3-21 3-12 3-10 8-16 1-3h2l2-5 10-14 11-12 11-10 13-9h2z" fill="#C3C8E4"/>
<path transform="translate(1313,725)" d="m0 0h20l13 4 11 7 10 10 8 16 2 5v20l-2 11-9 15-9 9-9 6-12 4-5 1h-17l-7-1-14-7-10-9-6-7-5-9-3-8v-22l3-12 8-13 10-10 10-6z" fill="#D8DCEF"/>
<path transform="translate(875,439)" d="m0 0 1 4-1 114v301l1 114-3-1v-520l1-10z" fill="#C2C8E4"/>
<path transform="translate(1566,545)" d="m0 0h1v415l-2 14-4 13-2-4 3-7 2-21 1-264z" fill="#A3B9DE"/>
<path transform="translate(873,858)" d="m0 0h2l1 114-3-1z" fill="#C0C6E2"/>
<path transform="translate(1563,437)" d="m0 0 2 3 2 8v97h-1l-1-40v-43z" fill="#C4C9E5"/>
<path transform="translate(1563,437)" d="m0 0 2 3 2 8v14h-2z" fill="#88A3C4"/>
<path transform="translate(323,1237)" d="m0 0h2l-2 6-2 3h-2l-1 3-3 1 2-5z" fill="#CBD4EB"/>
<path transform="translate(306,585)" d="m0 0h2l-2 4-6 6h-3v-2l6-5h2z" fill="#B4C9E6"/>
</svg>
