<?xml version="1.0" encoding="UTF-8"?>
<svg version="1.1" viewBox="0 0 2048 2048" width="512" height="512" xmlns="http://www.w3.org/2000/svg">
<path transform="translate(758,64)" d="m0 0h19l14 2 16 5 16 8 13 9 12 11 8 8 11 15 9 15 9 21 6 20 3 13h67l2-5 6-23 9-22 10-18 12-16 7-8h2l1-3 14-11 14-9 16-7 16-4 8-1h19l14 2 16 5 16 8 13 9 12 11 8 8 11 15 9 15 9 21 6 20 3 13h67l2-5 6-23 9-22 10-18 12-16 7-8h2l1-3 14-11 14-9 16-7 16-4 8-1h19l14 2 16 5 16 8 13 9 12 11 8 8 11 15 9 15 9 21 6 20 3 13 134 1 10 3 6 4 5 5 5 8 2 10v1314h164l8 2 8 5 5 5 5 8 2 8v13l-2 22-5 25-10 30-11 23-12 19-11 14-12 14-8 8-11 9-14 11-18 11-16 8-19 8-28 8-14 3-1 161-1 10-6 11-7 7-11 4-15 1h-1465l-11-2-8-5-7-7-4-9-1-5v-1738l4-11 7-8 8-5 6-2 456-1 2-5 6-23 9-22 10-18 12-16 7-8h2l1-3 14-11 14-9 16-7 16-4zm2 64-13 5-10 7-10 10-9 14-8 18-2 6v4h119l1-3-8-21-9-15-11-12-11-8-10-4-5-1zm320 0-13 5-10 7-10 10-9 14-8 18-2 6v4h119l1-3-8-21-9-15-11-12-11-8-10-4-5-1zm320 0-13 5-10 7-10 10-9 14-8 18-2 6v4h119l1-3-8-21-9-15-11-12-11-8-10-4-5-1z" fill="#010101"/>
<path transform="translate(896,255)" d="m0 0h38l214 1-1 6-8 19-7 12-8 10-9 8-14 7-22 4-10 5-6 5-5 11-1 5v7l4 13 7 8 12 6 12 1 16-2 15-4 19-9 12-8 13-11 10-11 12-17 10-19 8-22 7-24 2-1h42l210 1-1 6-8 19-7 12-8 10-9 8-14 7-10 2-12 2-10 5-6 5-5 11-1 5v8l4 12 7 8 12 6 12 1 21-3 15-5 14-7 12-8 13-11 10-11 12-17 10-19 8-22 7-24 9-1 88 1 1 1v1278l-740 2-10 3-9 6-5 7-3 12-2 26-6 25-8 20-9 17-12 16-8 10-8 7-10 9-17 11-17 9-24 8-18 4-9 1h-25l-21-3-15-4-21-8-18-10-17-13-13-12-11-13-10-15-8-16-6-15-4-15-3-17-2-26v-1200l1-105h284l-1 6-8 19-7 12-8 10-9 8-14 7-22 4-9 4-7 6-4 8-2 8v8l4 12 7 8 12 6 12 1 21-3 15-5 14-7 11-7 14-12 10-11 12-17 10-19 8-22 7-24z" fill="#FDE66F"/>
<path transform="translate(225,256)" d="m0 0h126l1 1v622l1 116 2 9 6 10 7 5 11 4h11l10-4 8-7 5-10 2-8v-574l1-163 1-1h62l1 1v1646l-1 16-52 1h-74l-1-1-1-737-3-12-6-9-10-6-7-2h-12l-10 4-9 8-4 9-1 5-1 114-1 626-31 1h-31l-1-1-1-100v-648l1-914z" fill="#FDB434"/>
<path transform="translate(544,1726)" d="m0 0 4 1 4 5 2 1v2l4 2 18 14 20 12 16 8 12 5 21 7 25 5 20 2 40 1 901 1 1 1v126l-6 1h-1081l-1-1z" fill="#FDE66F"/>
<path transform="translate(926,1600)" d="m0 0h894l-1 9-8 22-12 23-12 16-11 12-12 11-18 12-17 9-19 7-20 5-7 1-19 1h-802l2-4 10-11 10-13 10-15 12-22 8-19 7-23z" fill="#FDB434"/>
<path transform="translate(1232,576)" d="m0 0h31l24 4 24 8 21 11 13 9 15 13 8 8 10 13 10 16 9 19 5 15 4 18 2 18 2 26 5 17 8 16 8 11 12 12 15 10 17 7 12 3 21 2 10 3 9 6 6 9 3 9v9l-4 12-9 10-10 5-5 1h-9l-24-3-17-4-19-7-16-8-12-8-13-10-16-16-4-6-3-1-7 9-14 14-14 11-13 8-16 8-16 6-16 4-15 2h-33l-23-4-21-7-17-8-14-9-12-9-12-11-7-8-10-13-12-21-7-17-5-19-3-18v-29l3-20 6-21 8-19 9-15 9-12 9-10 13-13 15-11 16-9 16-7 21-6z" fill="#010101"/>
<path transform="translate(829,512)" d="m0 0h104l11 4 8 6 5 8 5 19 21 106 41 205v8l-4 12-9 10-10 5-5 1h-8l-11-4-6-4-7-8-4-11-20-99v-2h-120l-2 11-18 89-4 11-4 6-7 6-8 4-4 1h-9l-9-3-8-5-7-8-4-11v-9l7-36 57-285 4-11 4-6 8-6 7-3z" fill="#010101"/>
<path transform="translate(666,1184)" d="m0 0h843l11 4 8 6 6 10 2 7v10l-4 10-4 6-7 6-8 4-7 1h-833l-12-2-8-4-8-8-4-9-1-4v-10l3-10 6-8 9-6z" fill="#010101"/>
<path transform="translate(826,1024)" d="m0 0h683l11 4 8 6 6 10 2 7v10l-4 11-9 10-10 5-6 1h-674l-13-2-9-6-5-5-5-10-1-4v-10l3-10 6-8 10-7z" fill="#010101"/>
<path transform="translate(668,1344)" d="m0 0h680l10 3 9 6 6 9 3 9v10l-4 11-9 10-10 5-5 1h-673l-11-1-12-6-8-9-3-7-1-5v-9l3-10 6-8 9-6z" fill="#010101"/>
<path transform="translate(1235,640)" d="m0 0h26l17 4 16 7 13 9 10 9 9 10 8 13 6 15 3 12 1 8v20l-3 15-7 17-9 15-12 13-14 11-19 9-15 4-6 1h-22l-18-4-15-6-14-9-10-9-8-8-10-16-6-14-4-18v-24l5-21 8-16 8-12 14-14 10-7 15-8 16-5z" fill="#FDE66F"/>
<path transform="translate(859,576)" d="m0 0h42l3 9 23 114-1 5h-93l-1-3 7-32 17-85z" fill="#FDE56D"/>
<path transform="translate(796,1063)" d="m0 0 6 2 5 10 1 3 4 2 8 5 13 2 17 1h662v2l-9 2h-98l-33 1-65 1h-294l-23-1h-147l-1-1h-15v1l-10-1-4-1-5-5-7-6-1-5-2-1-2-5z" fill="#FEF56A"/>
<path transform="translate(544,256)" d="m0 0h1l1 530v781l2 25v7h-1l-3-21-1-17v-1200z" fill="#FDB434"/>
<path transform="translate(707,1917)" d="m0 0h804l100 1 4 2h-1070v-1l34-1z" fill="#FDB434"/>
<path transform="translate(790,1181)" d="m0 0h600l83 1 35 1v1h-838v-1l41-1z" fill="#FDB434"/>
<path transform="translate(727,1341)" d="m0 0h499l121 2v1h-678v-1l16-1z" fill="#FDB434"/>
<path transform="translate(640,1230)" d="m0 0h4l4 6 8 7 8 3 12 2 622 1v1l-11 1-428 1h-174l-27-1-6-3-9-7-4-6z" fill="#FEF469"/>
<path transform="translate(1058,1793)" d="m0 0h573v106h-1l-1-7v-61l-1 7h-1l-1 14h-1l-1-8v-21l2-16-1-7-6-3-8-1-81-1h-452l-20-1z" fill="#FEF56B"/>
<path transform="translate(1630,262)" d="m0 0h1v623h-1l-1-113-1-39v-235l1-25v-184l-1 5h-1l-1 6h-1l-1-10 3-25 2 1z" fill="#FEF56B"/>
<path transform="translate(1630,1195)" d="m0 0h1v340l-72-1v-1l13-1 1-1h25l2-2v-1l9-1 11-3h4l3-6 1-127 1-30z" fill="#FEF56B"/>
<path transform="translate(547,256)" d="m0 0h281l-1 6-8 19-7 12-8 10-9 8-14 7h-10l4-5 9-5 8-6 5-5 9-11 11-16-1-7-2-3v-3h-267z" fill="#FEDC56"/>
<path transform="translate(1216,255)" d="m0 0h42l210 1-1 6-8 19-7 12-8 10-9 8-14 7h-10l4-3 5-4 6-4 13-12 12-16 6-9-1-7-2-3v-3l-240 1v-2z" fill="#FEDB55"/>
<path transform="translate(896,255)" d="m0 0h38l214 1-1 6-8 19-7 12-8 10-9 8-14 7h-10l4-3 5-4 6-4 13-12 12-16 6-9-1-7-2-3v-3l-240 1v-2z" fill="#FEDB55"/>
<path transform="translate(544,1726)" d="m0 0 4 1 4 5 2 1v2l4 2 18 14 16 10-2 1-6-2h-26l-13-1v160h-1z" fill="#FDB434"/>
<path transform="translate(1531,270)" d="m0 0 3 4v5l-2 6-2 12-7 17-9 15-7 9-15 15-4 3h-3v2h-3v2h-2v2h-2l-1 3-5 1v2l-7 1-1 4-6 1-1 2-7-1 2-2 11-6 11-7 13-11 10-11 12-17 10-19 8-22 3-8z" fill="#FEEF66"/>
<path transform="translate(1118,830)" d="m0 0 5 5 9 10 6 7 11 9 13 9 16 9 20 8 7 2v3l-5 1-15-3-3-2-10-3-13-7-9-5-5-5-8-6-10-9-7-9-3-6z" fill="#FEEB63"/>
<path transform="translate(1375,832)" d="m0 0 4 2 7 9 14 14 18 13 16 9 21 8 6 2-4 1-7-1-6 1-6-3-12-3-11-6-11-8-3-2v-2l-3-1-3-3-8-7-5-6-6-4-7-2-4 2 6-8z" fill="#FEE961"/>
<path transform="translate(1208,281)" d="m0 0 1 3h2v8l-4 13-7 14-10 16-18 18-4 3h-3v2l-6 4-4 4h-3v2h-5l2-3h2v-3l9-7 10-9 10-12 10-15 9-17 7-19z" fill="#FEEF66"/>
<path transform="translate(888,283)" d="m0 0 3 2-1 11-7 17-8 14-7 10h-2l-2 4-7 6-5 5-8 5h-2l-2 4-5 5h-4l-1 2-3-1 4-5 9-7 10-9 10-12 10-15 9-17 6-16z" fill="#FEEF66"/>
<path transform="translate(1283,649)" d="m0 0h7l13 8 10 8 9 9 9 13 7 14-1 3-5-3 1-3-5-1-8-8-2-6-4-2-2-5h-2l-7-8-10-8-8-6z" fill="#FEED65"/>
<path transform="translate(835,1655)" d="m0 0 1 4-13 16-7 8-11 9-10 8-19 11-11 5-11 4h-3v-2l7-2 1-3 7-3h2v-2l8-4 11-7 7-4 9-8 8-7 8-9 5-5 6-7z" fill="#FEED65"/>
<path transform="translate(582,1761)" d="m0 0h8l10 4 16 8 22 8 15 4 2 4h-10l-16-3-13-5-10-4-8-4-11-7z" fill="#FEE962"/>
<path transform="translate(636,1382)" d="m0 0 5 2 6 11 8 7 9 4v2l93 1-2 2-97 1-6-3-10-9-3-4-2-7z" fill="#FEEF66"/>
<path transform="translate(851,609)" d="m0 0 2 3 2 5v9l-3 7v9l-2 6-2 5v9l-4 10-2 11-4 1-1 3-1-4z" fill="#FEEC63"/>
<path transform="translate(1186,583)" d="m0 0 6 2-3 2-21 10-15 10-11 9-6 6h-2l-2 4-10 11-5 7-2-1 2-5 11-14 5-5 1-3 6-5h2v-2l9-7h3v-2l14-9 12-6z" fill="#FEEB64"/>
<path transform="translate(1631,1793)" d="m0 0h1v126l-4 1v-2h-12v-2l-11-1v-1l15-5h5l1-5h2l1-4 1-1z" fill="#FEDC55"/>
<path transform="translate(597,1685)" d="m0 0 4 2 7 5 6 1 3 2 7 2 8 6 6 4 7 4 3 5h-6l-16-8-13-8-13-10-3-3z" fill="#FEEC63"/>
<path transform="translate(1378,367)" d="m0 0 4 2 6 7 12 6 12 1h12l4 2h-2v2l-12 1h-20l-6-4-10-9-1-5z" fill="#FEE861"/>
<path transform="translate(1349,1408)" d="m0 0 4 1-1 2-7 1h-23l-76-1-33-1v-1z" fill="#FFF66B"/>
<path transform="translate(738,367)" d="m0 0 4 2 6 7 12 6 12 1h12l4 2-4 2-25 1-9-2-12-12-1-5z" fill="#FEE760"/>
<path transform="translate(803,854)" d="m0 0h3l1 9-1 5-1 9-6 10-7 3-8 4h-5l4-3 6-4 5-6 4-9 3-14z" fill="#FEEB63"/>
<path transform="translate(1058,367)" d="m0 0 4 2 6 7 12 6 7 1 21 1-2 3-17 1h-14l-6-3-9-8-2-3z" fill="#FEE962"/>
<path transform="translate(1318,793)" d="m0 0 3 3 1-3 1 3-9 10-12 10-13 7h-5l5-5 14-11h2l1-3 8-7z" fill="#FEEB63"/>
<path transform="translate(1377,1372)" d="m0 0 4 2 1 2v13l-3 6-7 6-4 2-6 1 3-5 6-7 5-13z" fill="#FEF167"/>
<path transform="translate(1539,864)" d="m0 0 2 3 1 6-2 9-5 5-4 3-7 3-4-1 5-5 6-7 4-12z" fill="#FEEF66"/>
<path transform="translate(1537,1054)" d="m0 0 4 3 1 8-2 9-8 7-4 2-6 1 3-5 6-7 5-13z" fill="#FEF067"/>
<path transform="translate(1537,1213)" d="m0 0 3 1 2 10-1 8-5 7-6 3-4-1 1-4 5-7 4-11z" fill="#FEF067"/>
<path transform="translate(1027,866)" d="m0 0 2 4v9l-6 8-4 4-10 2v-3l8-7 4-8 4-7z" fill="#FEF066"/>
<path transform="translate(1438,804)" d="m0 0h2v2h7l6 3 10 9 2 1 1 4-6-1-14-9-8-7z" fill="#FEEA63"/>
<path transform="translate(918,680)" d="m0 0 1 3-1 4h5l1 2v8l-5 5-6-2-3-3 4-5 2-4z" fill="#FEF56B"/>
<path transform="translate(916,665)" d="m0 0 3 2v2h2l3 15v5l-1-2h-5l1-7-4 1-2-4v-6z" fill="#FEF56B"/>
<path transform="translate(1195,655)" d="m0 0 2 1-7 8-5 1v2l-6 5-1 4-4 4-3 8-4 2-2 4-4 2 2-6 10-15 14-14z" fill="#FEE55E"/>
<path transform="translate(738,881)" d="m0 0 5 2 8 7 8 4 5 1v1l-13 2-8-7-5-6-1-3z" fill="#FEE65F"/>
<path transform="translate(899,576)" d="m0 0 3 1v8h-2l-3-3v6l-5-4v-2l-9-3-1-2z" fill="#FEF46A"/>
<path transform="translate(1511,1248)" d="m0 0 1 3-15 1-30-1-5-1v-1z" fill="#FFF66B"/>
<path transform="translate(811,1029)" d="m0 0h2v2l-6 5-5 10-2 16h-2l-1-4v-10l7-14h3l1-4z" fill="#FEE65F"/>
<path transform="translate(938,768)" d="m0 0h2v8l-2 3-4-2-5-4-6-3v-1z" fill="#FEF56A"/>
<path transform="translate(1228,896)" d="m0 0h40l-2 2-8 1h-22l-8-2z" fill="#FEF16C"/>
<path transform="translate(911,646)" d="m0 0 1 2 3-1 1 2v8l-2 6h-2l-2-5v-9z" fill="#FEF56B"/>
<path transform="translate(545,256)" d="m0 0 10 1-3 3-1 4h-2v5h-2l-2 3z" fill="#FEF36B"/>
<path transform="translate(963,881)" d="m0 0 5 3 7 6 6 3-3 1-9-2-5-4-2-5z" fill="#FEDE59"/>
<path transform="translate(1468,364)" d="m0 0 2 1-3 4h-2l-1 4-6 1-1 2-7-1 2-2 11-6z" fill="#FEE15B"/>
<path transform="translate(902,605)" d="m0 0 5 5v3l-1 9-2 2-3-9z" fill="#FFF66B"/>
<path transform="translate(1188,806)" d="m0 0 5 1 6 4 3 4 2 3-5-2-8-5-3-1-1-3z" fill="#FEF56B"/>
<path transform="translate(920,669)" d="m0 0h1l3 15v5l-1-2h-5v-8z" fill="#FDD55B"/>
<path transform="translate(940,787)" d="m0 0h3l1 2v6l-4 4-2-3-1-7z" fill="#FEF56B"/>
<path transform="translate(1383,648)" d="m0 0 4 4 6 9 2 8-2 1-10-19z" fill="#FEDF59"/>
<path transform="translate(1195,655)" d="m0 0 2 1-7 8-5 1v2l-8 7-2-1 12-12z" fill="#FDDA56"/>
<path transform="translate(806,834)" d="m0 0h3l1 6-2 9h-3v-11z" fill="#FEE961"/>
<path transform="translate(1126,628)" d="m0 0 1 3-10 13-2-1 2-5 7-8z" fill="#FEE45F"/>
<path transform="translate(775,651)" d="m0 0h2v8l-2 10-2-2v-11z" fill="#FEE25D"/>
<path transform="translate(1614,257)" d="m0 0h17l-1 4h-3l-2 1-11-4z" fill="#FEF56B"/>
<path transform="translate(796,1063)" d="m0 0 6 2 1 5-2 2-4-1-1-2z" fill="#FEEB67"/>
<path transform="translate(810,814)" d="m0 0h2l2 6-1 6-4 1v-9z" fill="#FEE760"/>
<path transform="translate(1186,809)" d="m0 0 9 3 6 5 1 3-5-2-11-8z" fill="#FDD055"/>
<path transform="translate(785,610)" d="m0 0 1 4-3 15h-1l-1-13 3-3z" fill="#FDD855"/>
<path transform="translate(789,590)" d="m0 0 1 4-3 15h-1l-1-12z" fill="#FDD955"/>
<path transform="translate(780,633)" d="m0 0h1l-1 11-1 5h-1l-1-13z" fill="#FDDB57"/>
<path transform="translate(906,629)" d="m0 0h3l2 10-2 3-3-7z" fill="#FFF66B"/>
<path transform="translate(1525,1239)" d="m0 0v3l-5 5-5 1-2-2 10-5z" fill="#FEDF5A"/>
<path transform="translate(771,671)" d="m0 0h1v13l-1 5h-1l-1-5v-7z" fill="#FEE15B"/>
<path transform="translate(640,1363)" d="m0 0 1 2-2 16-2-4v-8z" fill="#FEF46B"/>
<path transform="translate(837,692)" d="m0 0 4 1v6l-5 1-1-5z" fill="#FFF66B"/>
<path transform="translate(898,592)" d="m0 0 4 2 1 7-2 3-3-5z" fill="#FEF56B"/>
<path transform="translate(863,1557)" d="m0 0h1v10l-1 7h-1l-1-11z" fill="#FEF46B"/>
<path transform="translate(648,1190)" d="m0 0h3l-2 4-5 7-2 3 1-8h2v-2h2z" fill="#FEDC57"/>
<path transform="translate(818,370)" d="m0 0 2 1-3 5h-9l4-3z" fill="#FEDC57"/>
<path transform="translate(639,1206)" d="m0 0h1l-1 16h-1l-1-5v-8z" fill="#FEF46B"/>
<path transform="translate(565,1644)" d="m0 0 5 5 1 7-3-3-3-5z" fill="#FEE25D"/>
<path transform="translate(811,1029)" d="m0 0h2v2l-6 5-3 3-1-3 1-2h3l1-4z" fill="#FEDE59"/>
<path transform="translate(1419,780)" d="m0 0 3 1 2 2 2 1-1 6-4-5z" fill="#FEE05B"/>
<path transform="translate(799,535)" d="m0 0h1v9l-1 5h-1l-1-11z" fill="#FEE05B"/>
<path transform="translate(1138,370)" d="m0 0 2 1-3 5-7-1 4-3z" fill="#FEDB57"/>
<path transform="translate(1531,1196)" d="m0 0 3 4 3 6-1 5-2-4-3-7z" fill="#FEDE5B"/>
<path transform="translate(1450,888)" d="m0 0 7 1 3 3-3 1-6-2z" fill="#FEF46B"/>
</svg>
